<svg width="12" height="12" viewBox="0 0 12 12" fill="none" xmlns="http://www.w3.org/2000/svg">
<path d="M7.21633 0.835687C7.23262 0.774769 7.26076 0.717659 7.29913 0.66762C7.33751 0.61758 7.38536 0.575592 7.43997 0.544054C7.49458 0.512517 7.55486 0.492047 7.61738 0.483816C7.6799 0.475585 7.74343 0.479754 7.80434 0.496083C8.69419 0.728255 9.50607 1.19344 10.1564 1.84372C10.8066 2.494 11.2718 3.30587 11.504 4.19572C11.5203 4.25663 11.5245 4.32016 11.5163 4.38268C11.508 4.44519 11.4876 4.50548 11.456 4.56009C11.4245 4.61469 11.3825 4.66255 11.3325 4.70092C11.2824 4.73929 11.2253 4.76743 11.1644 4.78373C11.1239 4.79437 11.0821 4.79982 11.0402 4.79992C10.9344 4.79992 10.8316 4.76498 10.7477 4.70053C10.6639 4.63608 10.6036 4.54573 10.5764 4.44352C10.387 3.71711 10.0074 3.05433 9.47655 2.52352C8.94573 1.9927 8.28296 1.61305 7.55654 1.42369C7.49556 1.40746 7.43839 1.37937 7.38828 1.34103C7.33818 1.30268 7.29612 1.25483 7.26452 1.20022C7.23293 1.14561 7.21241 1.0853 7.20414 1.02275C7.19587 0.960202 7.20001 0.896634 7.21633 0.835687ZM7.07653 3.34371C7.90394 3.56451 8.43555 4.09612 8.65635 4.92353C8.68359 5.02573 8.74383 5.11608 8.8277 5.18053C8.91157 5.24499 9.01439 5.27993 9.12016 5.27993C9.16208 5.27982 9.20382 5.27438 9.24436 5.26373C9.30528 5.24744 9.36239 5.2193 9.41243 5.18093C9.46247 5.14255 9.50446 5.0947 9.536 5.04009C9.56754 4.98548 9.58801 4.9252 9.59624 4.86268C9.60447 4.80016 9.6003 4.73663 9.58397 4.67572C9.27676 3.52611 8.47395 2.7233 7.32433 2.4161C7.26342 2.39983 7.19991 2.39572 7.13741 2.40399C7.07491 2.41227 7.01465 2.43277 6.96008 2.46434C6.90551 2.4959 6.85768 2.5379 6.81934 2.58795C6.781 2.63799 6.75289 2.6951 6.73662 2.75601C6.72035 2.81691 6.71623 2.88043 6.72451 2.94293C6.73279 3.00542 6.75329 3.06568 6.78486 3.12025C6.81642 3.17483 6.85842 3.22265 6.90847 3.26099C6.95851 3.29933 7.01562 3.32744 7.07653 3.34371ZM11.993 9.06477C11.886 9.87779 11.4867 10.6241 10.8697 11.1642C10.2527 11.7044 9.46019 12.0015 8.64015 12C3.87607 12 5.42928e-06 8.12396 5.42928e-06 3.35991C-0.00146458 2.53988 0.295623 1.74735 0.83578 1.13035C1.37594 0.513345 2.12222 0.114064 2.93526 0.00707865C3.14085 -0.018025 3.34905 0.024036 3.52878 0.126983C3.7085 0.22993 3.85012 0.388241 3.93247 0.578284L5.1997 3.40731V3.41451C5.26275 3.55999 5.28879 3.71881 5.27549 3.8768C5.2622 4.03479 5.20997 4.18703 5.12349 4.31992C5.11269 4.33612 5.10129 4.35112 5.08929 4.36612L3.84007 5.84693C4.28948 6.76014 5.2447 7.70695 6.16991 8.15756L7.63034 6.91495C7.64468 6.90289 7.6597 6.89167 7.67534 6.88135C7.80812 6.79279 7.96088 6.73873 8.11981 6.72406C8.27873 6.70939 8.43881 6.73458 8.58555 6.79734L8.59335 6.80094L11.42 8.06756C11.6104 8.14962 11.7691 8.29111 11.8724 8.47086C11.9757 8.65061 12.018 8.85896 11.993 9.06477ZM11.0402 8.94477C11.0402 8.94477 11.036 8.94477 11.0336 8.94477L8.21355 7.68175L6.75252 8.92437C6.73835 8.93637 6.72353 8.94759 6.70812 8.95796C6.56997 9.05013 6.41028 9.10488 6.24464 9.11687C6.079 9.12886 5.91309 9.09768 5.7631 9.02637C4.63929 8.48336 3.51907 7.37155 2.97546 6.25974C2.90347 6.11085 2.87117 5.94589 2.88168 5.78085C2.8922 5.61581 2.94516 5.45628 3.03546 5.31773C3.04563 5.30146 3.05707 5.28601 3.06966 5.27153L4.32008 3.78892L3.06006 0.968888C3.05982 0.966494 3.05982 0.964082 3.06006 0.961688C2.4782 1.03759 1.94397 1.32299 1.5574 1.76444C1.17083 2.2059 0.95845 2.77313 0.960022 3.35991C0.962245 5.39611 1.77211 7.34828 3.21194 8.78809C4.65176 10.2279 6.60394 11.0378 8.64015 11.04C9.22658 11.042 9.79366 10.8304 10.2354 10.4446C10.6771 10.0589 10.9632 9.52551 11.0402 8.94417V8.94477Z" fill="black"/>
</svg>
